HIERARCHY
ROOT Hips
{
  OFFSET 0 0 0
  CHANNELS 6 Xposition Yposition Zposition Zrotation Yrotation Xrotation
  JOINT LeftThigh
  {
    OFFSET 8.409438 0 -5.917753
    CHANNELS 3 Zrotation Yrotation Xrotation
    JOINT LeftLeg
    {
      OFFSET 0 0 -42.358652
      CHANNELS 3 Zrotation Yrotation Xrotation
      JOINT LeftFoot
      {
        OFFSET 0 0 -39.357303
        CHANNELS 3 Zrotation Yrotation Xrotation
      }
    }
  }
  JOINT RightThigh
  {
    OFFSET -8.409438 0 -5.917753
    CHANNELS 3 Zrotation Yrotation Xrotation
    JOINT RightLeg
    {
      OFFSET 0 0 -42.358652
      CHANNELS 3 Zrotation Yrotation Xrotation
      JOINT RightFoot
      {
        OFFSET 0 0 -39.357303
        CHANNELS 3 Zrotation Yrotation Xrotation
      }
    }
  }
  JOINT SpineLow
  {
    OFFSET 0 0 4.719101
    CHANNELS 3 Zrotation Yrotation Xrotation
    JOINT SpineMid
    {
      OFFSET 0 0 12.899191
      CHANNELS 3 Zrotation Yrotation Xrotation
      JOINT Chest
      {
        OFFSET 0 0 12.899191
        CHANNELS 3 Zrotation Yrotation Xrotation
        JOINT LeftShoulder
        {
          OFFSET 7.550562 1.41573 9.438202
          CHANNELS 3 Zrotation Yrotation Xrotation
          JOINT LeftArm
          {
            OFFSET 9.155056 0 4.247191
            CHANNELS 3 Zrotation Yrotation Xrotation
            JOINT LeftForearm
            {
              OFFSET 0 0 25.771955
              CHANNELS 3 Zrotation Yrotation Xrotation
              JOINT LeftHand
              {
                OFFSET 0 0 25.197169
                CHANNELS 3 Zrotation Yrotation Xrotation
              }
            }
          }
        }
        JOINT RightShoulder
        {
          OFFSET -7.550562 1.41573 9.438202
          CHANNELS 3 Zrotation Yrotation Xrotation
          JOINT RightArm
          {
            OFFSET -9.155056 0 4.247191
            CHANNELS 3 Zrotation Yrotation Xrotation
            JOINT RightForearm
            {
              OFFSET 0 0 -25.771955
              CHANNELS 3 Zrotation Yrotation Xrotation
              JOINT RightHand
              {
                OFFSET 0 0 -25.197169
                CHANNELS 3 Zrotation Yrotation Xrotation
              }
            }
          }
        }
        JOINT Neck
        {
          OFFSET 0 0 15.101124
          CHANNELS 3 Zrotation Yrotation Xrotation
          JOINT Head
          {
            OFFSET 0 0 11.325843
            CHANNELS 3 Zrotation Yrotation Xrotation
            End Site
            {
              OFFSET 0 0 14.157303
            }
          }
        }
      }
    }
  }
}
MOTION
Frames: 13
Frame Time: 0.0
0.0  89.887642  0.0  -84.754147  40.500874  -167.404461  16.042537  -63.820856  -28.603082  -25.846256  18.498504  18.689142  4.796174  3.289182  7.626549  -31.590272  32.819621  -54.408912  -2.793596  -3.787678  21.927071  4.754146  5.214986  5.590704  0.160904  -3.173548  -0.687711  0.533285  -8.669111  -1.911131  0.533285  -8.669111  -1.911131  -21.772621  18.520628  3.524032  105.48308  52.677746  -157.990148  -28.338544  -15.240616  57.715849  70.090107  5.11961  45.490475  -18.706619  10.99682  17.448864  46.497418  61.340096  19.592499  -44.804815  -29.644692  -21.637988  63.522093  -32.002793  -0.081494  -53.845164  3.453622  13.573188  -40.472975  1.402588  10.581724  
0.0  89.887642  0.0  -83.380172  40.551144  -166.568882  18.377453  -63.620292  -29.669092  -27.221625  19.301166  18.187801  4.758671  3.545747  7.429962  -26.924377  36.447411  -51.927549  -3.374343  -4.316313  22.281576  4.317226  5.002087  5.439261  0.020576  -3.230788  -0.614167  0.13947  -8.829849  -1.690828  0.139469  -8.829849  -1.690829  -20.502138  19.126319  3.544183  106.669067  51.531295  -156.674687  -28.248492  -15.162205  57.245396  71.616693  4.763367  46.943383  -17.709401  11.562587  17.324553  47.15184  60.815553  20.063609  -44.026004  -29.874266  -23.628253  63.890767  -32.116841  -0.17567  -53.037454  3.823332  12.419372  -39.861063  1.802054  9.732924  
0.0  89.887642  0.0  -81.800382  40.817687  -165.274307  20.60098  -62.618483  -30.766504  -28.581761  19.704664  17.947869  4.444272  3.845558  7.221499  -20.670542  39.823969  -47.620845  -5.575917  -3.889362  21.781222  4.155402  4.793923  5.271316  6.12E-4  -3.253818  -0.715278  0.098954  -8.893064  -1.966197  0.098954  -8.893065  -1.966197  -19.878213  20.094652  4.226765  108.330751  51.429038  -155.838131  -28.609782  -14.13075  56.997656  72.564185  5.373442  48.077169  -17.342847  12.403349  17.970579  47.175175  60.374201  20.142368  -42.841489  -30.350795  -25.982412  64.270897  -31.858628  -0.304381  -52.714651  4.546586  11.538454  -39.617943  2.433227  9.125445  
0.0  89.887642  0.0  -80.106336  41.085536  -164.096697  21.67326  -61.386449  -30.708778  -29.947766  19.757282  17.807225  4.0212  4.129242  7.06774  -14.071539  42.255213  -43.265899  -9.449581  -2.94346  22.110861  4.687846  4.861642  5.046657  0.176097  -3.218773  -0.781303  0.589005  -8.791345  -2.170998  0.589005  -8.791345  -2.170998  -20.694209  20.662047  4.678761  110.939562  51.837898  -154.637405  -28.121564  -12.44383  56.561691  72.828951  6.037771  49.050877  -18.299128  12.891989  18.546154  47.230409  60.04343  20.176715  -41.97406  -30.798374  -28.43411  64.488107  -31.701654  -0.323406  -53.129826  4.998732  11.070727  -39.928088  2.809174  8.815227  
0.0  89.887642  0.0  -78.584427  41.25423  -163.153107  21.407999  -60.53768  -29.745608  -31.227454  19.917589  17.681082  3.999478  4.362417  7.063396  -12.333303  42.532953  -43.657943  -11.62776  -2.716777  24.553505  4.985556  5.181338  5.023073  0.323301  -3.223192  -0.880993  1.007077  -8.796876  -2.464824  1.007077  -8.796875  -2.464824  -21.470354  21.259563  5.425871  113.390817  52.40926  -153.180675  -27.306764  -10.938149  56.008182  72.63407  6.394999  49.715107  -19.292343  13.403262  19.296762  47.772563  59.619326  20.742285  -41.173226  -31.200236  -31.166839  64.459921  -31.441332  -0.216637  -53.65888  5.623484  10.8446  -40.326375  3.293257  8.704835  
0.0  89.887642  0.0  -77.177551  41.421855  -162.324343  19.666783  -59.968941  -27.754519  -32.064095  20.118  17.658108  4.219231  4.539659  7.16107  -15.291119  40.870298  -48.159428  -11.585179  -3.151678  28.547712  4.65779  5.597521  5.054041  0.254063  -3.317443  -0.918193  0.825741  -9.056547  -2.559616  0.82574  -9.056548  -2.559616  -21.130272  22.168203  6.035094  114.29887  53.283053  -152.663852  -26.490329  -9.971216  55.323646  72.186956  5.945006  49.859331  -19.331308  14.33972  19.733465  48.359782  59.010291  20.718016  -40.477303  -31.100799  -33.802096  64.225999  -31.174667  0.197014  -53.598746  6.252151  10.412489  -40.278973  3.808849  8.432125  
0.0  89.887642  0.0  -75.605946  41.621904  -161.337808  17.108101  -59.431425  -25.031084  -32.37648  20.15532  17.75514  4.548094  4.671116  7.41004  -20.132564  37.400906  -53.934168  -10.222053  -3.68084  33.102486  4.241975  6.024568  4.978254  0.132673  -3.390491  -0.877267  0.489225  -9.261269  -2.431339  0.489225  -9.261269  -2.431339  -20.710333  22.668558  6.235622  113.455334  53.933936  -153.495688  -26.217247  -9.86168  54.97728  71.858167  5.349936  49.630854  -19.019078  14.884343  19.734663  48.756179  58.19662  20.35126  -39.733949  -30.629766  -36.546009  63.904047  -30.882067  0.860715  -53.357153  6.564346  9.992588  -40.093403  4.086274  8.138499  
0.0  89.887642  0.0  -73.462396  41.651532  -159.879384  14.642304  -58.909045  -22.048278  -32.173395  20.104587  18.042222  4.827257  4.794335  7.689131  -24.477607  32.827302  -59.498225  -8.336037  -4.292106  38.080897  3.561422  6.527677  4.839795  0.07372  -3.424396  -0.767708  0.312739  -9.356781  -2.122066  0.312739  -9.35678  -2.122067  -20.722759  22.636769  5.869455  111.472146  54.058922  -155.219751  -26.17708  -10.603025  54.817912  71.586226  4.74835  49.32163  -19.122351  15.088252  19.318484  49.380488  57.25899  19.674749  -39.042423  -29.848787  -39.267826  63.566565  -30.595323  1.681228  -53.129387  6.505242  9.662163  -39.918173  4.074028  7.880407  
0.0  89.887642  0.0  -70.625767  41.418106  -157.970859  12.534081  -58.43813  -18.8527  -31.679056  20.025865  18.312625  5.061762  5.030448  7.923793  -27.456582  27.60466  -64.446033  -6.024918  -4.983716  43.56468  2.497791  7.086257  4.672878  0.082107  -3.447946  -0.61694  0.314854  -9.421778  -1.708826  0.314854  -9.421778  -1.708826  -20.956367  22.278333  5.366606  109.119982  53.446257  -156.947825  -26.144373  -12.321605  54.725296  71.191313  4.10878  49.028254  -19.271906  15.056896  18.730166  50.264928  56.240345  19.055935  -37.163313  -30.102216  -44.013713  61.966408  -30.791694  5.175534  -52.905276  6.301804  9.36587  -39.7459  3.949197  7.635785  
0.0  89.887642  0.0  -67.238594  40.902388  -155.724628  10.867122  -57.912942  -15.494265  -30.945228  19.910768  18.538079  5.30399  5.254994  8.084082  -28.757619  22.017547  -68.273051  -3.419757  -5.425998  49.095159  1.332466  7.570326  4.503955  0.14075  -3.493682  -0.464408  0.455128  -9.546459  -1.298216  0.455128  -9.546459  -1.298216  -21.364493  21.981355  4.831953  107.002304  52.670358  -158.526428  -26.393453  -14.219174  54.785815  70.745295  3.600701  48.805674  -19.68519  15.182922  18.147161  51.823601  55.133496  18.557576  -36.807636  -28.895611  -46.630553  61.67881  -30.405134  6.282187  -52.682431  6.171347  9.016085  -39.574186  3.88408  7.357182  
0.0  89.887642  0.0  -63.630178  40.167767  -153.343848  9.840431  -57.294074  -12.356268  -30.280208  19.773246  18.718891  5.539373  5.503216  8.073613  -28.485113  16.798587  -70.624352  -1.200119  -5.463148  54.23626  0.417942  7.936097  4.30175  0.178423  -3.555913  -0.314405  0.537793  -9.71714  -0.891732  0.537793  -9.71714  -0.891731  -21.703432  21.880419  4.446633  105.828986  51.906116  -159.584502  -26.434305  -15.844831  55.079359  70.344973  3.14095  48.437385  -19.985602  15.437642  17.637892  53.938662  53.937263  18.105132  -36.737803  -27.545837  -49.172998  62.349568  -29.315437  5.385223  -52.29578  6.167498  8.615146  -39.279443  3.92115  7.048796  
0.0  89.887642  0.0  -60.110468  39.190903  -150.890236  9.393563  -56.782012  -9.637253  -29.656724  19.741431  18.630469  5.822701  5.70257  8.087349  -27.098679  12.252582  -71.663591  0.366048  -5.20319  58.669259  -0.350622  8.0879  4.164801  0.196853  -3.646961  -0.187989  0.570613  -9.966912  -0.547568  0.570613  -9.966912  -0.547568  -22.126376  22.009076  4.134276  105.732425  51.230454  -160.112902  -26.168199  -17.232345  55.547241  69.963148  2.660346  48.173509  -20.363167  15.790487  17.090986  56.540373  52.733172  17.655665  -36.87232  -26.117493  -51.571559  62.19197  -28.619691  6.276728  -51.80145  6.260974  8.167756  -38.903586  4.036671  6.712286  
0.0  89.887642  0.0  -56.483566  38.050168  -148.494274  9.154075  -56.368855  -6.818844  -28.695097  19.764436  18.488659  5.882264  5.859589  8.027464  -24.744988  8.940537  -72.209622  0.87368  -4.889474  63.116166  -1.001512  8.045456  4.073214  0.200068  -3.735251  -0.06945  0.561803  -10.209265  -0.222586  0.561803  -10.209264  -0.222587  -22.497853  22.306616  3.916031  106.378872  50.471313  -160.208436  -25.81393  -18.106771  56.37011  70.091619  2.33896  47.850214  -20.597078  16.219038  16.756706  59.322925  51.640033  17.13018  -37.056099  -24.760655  -53.842717  62.253072  -27.820617  6.930749  -51.152829  6.571317  7.747615  -38.412353  4.314988  6.412544  
